<mxfile host="app.diagrams.net" modified="2021-06-30T05:30:40.992Z" agent="5.0 (Macintosh; Intel Mac OS X 10_15_7) AppleWebKit/537.36 (KHTML, like Gecko) Chrome/91.0.4472.114 Safari/537.36" etag="aK0qqwwDlk05e9hff4rf" version="14.8.2" type="github">
  <diagram id="oRJQenJrKzOIDl2molmY" name="Page-1">
    <mxGraphModel dx="401" dy="638" grid="1" gridSize="10" guides="1" tooltips="1" connect="1" arrows="1" fold="1" page="1" pageScale="1" pageWidth="827" pageHeight="1169" math="0" shadow="0">
      <root>
        <mxCell id="0" />
        <mxCell id="1" parent="0" />
        <mxCell id="1zqEIglhUjaRobkNdiSv-4" style="edgeStyle=orthogonalEdgeStyle;rounded=0;orthogonalLoop=1;jettySize=auto;html=1;entryX=0.5;entryY=0;entryDx=0;entryDy=0;" edge="1" parent="1" source="1zqEIglhUjaRobkNdiSv-1" target="1zqEIglhUjaRobkNdiSv-2">
          <mxGeometry relative="1" as="geometry" />
        </mxCell>
        <mxCell id="1zqEIglhUjaRobkNdiSv-1" value="&lt;font style=&quot;vertical-align: inherit&quot;&gt;&lt;font style=&quot;vertical-align: inherit&quot;&gt;開始&lt;/font&gt;&lt;/font&gt;" style="strokeWidth=2;html=1;shape=mxgraph.flowchart.terminator;whiteSpace=wrap;" vertex="1" parent="1">
          <mxGeometry x="80" y="50" width="160" height="70" as="geometry" />
        </mxCell>
        <mxCell id="1zqEIglhUjaRobkNdiSv-9" style="edgeStyle=orthogonalEdgeStyle;rounded=0;orthogonalLoop=1;jettySize=auto;html=1;entryX=0.5;entryY=0;entryDx=0;entryDy=0;" edge="1" parent="1" source="1zqEIglhUjaRobkNdiSv-2" target="1zqEIglhUjaRobkNdiSv-5">
          <mxGeometry relative="1" as="geometry" />
        </mxCell>
        <mxCell id="1zqEIglhUjaRobkNdiSv-2" value="&lt;font style=&quot;vertical-align: inherit&quot;&gt;&lt;font style=&quot;vertical-align: inherit&quot;&gt;標準出力&lt;br&gt;（配列に格納）&lt;br&gt;&lt;/font&gt;&lt;/font&gt;" style="shape=parallelogram;html=1;strokeWidth=2;perimeter=parallelogramPerimeter;whiteSpace=wrap;rounded=1;arcSize=12;size=0.23;" vertex="1" parent="1">
          <mxGeometry x="80" y="160" width="160" height="60" as="geometry" />
        </mxCell>
        <mxCell id="1zqEIglhUjaRobkNdiSv-14" style="edgeStyle=orthogonalEdgeStyle;rounded=0;orthogonalLoop=1;jettySize=auto;html=1;entryX=0.5;entryY=0;entryDx=0;entryDy=0;" edge="1" parent="1" source="1zqEIglhUjaRobkNdiSv-5" target="1zqEIglhUjaRobkNdiSv-10">
          <mxGeometry relative="1" as="geometry" />
        </mxCell>
        <mxCell id="1zqEIglhUjaRobkNdiSv-5" value="&lt;font style=&quot;vertical-align: inherit&quot;&gt;&lt;font style=&quot;vertical-align: inherit&quot;&gt;配列の0番目の要素を&lt;br&gt;室内温度用の変数に代入&lt;br&gt;&lt;/font&gt;&lt;/font&gt;" style="rounded=1;whiteSpace=wrap;html=1;absoluteArcSize=1;arcSize=14;strokeWidth=2;" vertex="1" parent="1">
          <mxGeometry x="80" y="260" width="160" height="60" as="geometry" />
        </mxCell>
        <mxCell id="1zqEIglhUjaRobkNdiSv-16" style="edgeStyle=orthogonalEdgeStyle;rounded=0;orthogonalLoop=1;jettySize=auto;html=1;" edge="1" parent="1" source="1zqEIglhUjaRobkNdiSv-10" target="1zqEIglhUjaRobkNdiSv-15">
          <mxGeometry relative="1" as="geometry" />
        </mxCell>
        <mxCell id="1zqEIglhUjaRobkNdiSv-10" value="&lt;font style=&quot;vertical-align: inherit&quot;&gt;&lt;font style=&quot;vertical-align: inherit&quot;&gt;配列の0番目の要素を&lt;br&gt;室内温度用の変数に代入&lt;br&gt;&lt;/font&gt;&lt;/font&gt;" style="rounded=1;whiteSpace=wrap;html=1;absoluteArcSize=1;arcSize=14;strokeWidth=2;" vertex="1" parent="1">
          <mxGeometry x="80" y="360" width="160" height="60" as="geometry" />
        </mxCell>
        <mxCell id="1zqEIglhUjaRobkNdiSv-20" style="edgeStyle=orthogonalEdgeStyle;rounded=0;orthogonalLoop=1;jettySize=auto;html=1;entryX=0.5;entryY=0;entryDx=0;entryDy=0;" edge="1" parent="1" source="1zqEIglhUjaRobkNdiSv-15" target="1zqEIglhUjaRobkNdiSv-17">
          <mxGeometry relative="1" as="geometry" />
        </mxCell>
        <mxCell id="1zqEIglhUjaRobkNdiSv-15" value="&lt;font style=&quot;vertical-align: inherit&quot;&gt;&lt;font style=&quot;vertical-align: inherit&quot;&gt;&lt;font style=&quot;vertical-align: inherit&quot;&gt;&lt;font style=&quot;vertical-align: inherit&quot;&gt;室内温度と設定温度の差を&lt;br&gt;絶対値で求め、&lt;br&gt;温度作用の変数に格納&lt;/font&gt;&lt;/font&gt;&lt;br&gt;&lt;/font&gt;&lt;/font&gt;" style="rounded=1;whiteSpace=wrap;html=1;absoluteArcSize=1;arcSize=14;strokeWidth=2;" vertex="1" parent="1">
          <mxGeometry x="80" y="460" width="160" height="60" as="geometry" />
        </mxCell>
        <mxCell id="1zqEIglhUjaRobkNdiSv-23" style="edgeStyle=orthogonalEdgeStyle;rounded=0;orthogonalLoop=1;jettySize=auto;html=1;entryX=0.5;entryY=0;entryDx=0;entryDy=0;entryPerimeter=0;" edge="1" parent="1" source="1zqEIglhUjaRobkNdiSv-17" target="1zqEIglhUjaRobkNdiSv-21">
          <mxGeometry relative="1" as="geometry" />
        </mxCell>
        <mxCell id="1zqEIglhUjaRobkNdiSv-17" value="" style="verticalLabelPosition=bottom;verticalAlign=top;html=1;shape=hexagon;perimeter=hexagonPerimeter2;arcSize=6;size=0.27;" vertex="1" parent="1">
          <mxGeometry x="70" y="570" width="180" height="70" as="geometry" />
        </mxCell>
        <mxCell id="1zqEIglhUjaRobkNdiSv-18" value="&lt;font style=&quot;vertical-align: inherit&quot;&gt;&lt;font style=&quot;vertical-align: inherit&quot;&gt;設定温度になるまでの&lt;br&gt;時間用の変数を初期化する&lt;/font&gt;&lt;/font&gt;" style="text;html=1;resizable=0;autosize=1;align=center;verticalAlign=middle;points=[];fillColor=none;strokeColor=none;rounded=0;" vertex="1" parent="1">
          <mxGeometry x="80" y="590" width="160" height="30" as="geometry" />
        </mxCell>
        <mxCell id="1zqEIglhUjaRobkNdiSv-25" style="edgeStyle=orthogonalEdgeStyle;rounded=0;orthogonalLoop=1;jettySize=auto;html=1;entryX=0;entryY=0.5;entryDx=0;entryDy=0;entryPerimeter=0;" edge="1" parent="1" source="1zqEIglhUjaRobkNdiSv-21" target="1zqEIglhUjaRobkNdiSv-24">
          <mxGeometry relative="1" as="geometry" />
        </mxCell>
        <mxCell id="1zqEIglhUjaRobkNdiSv-29" style="edgeStyle=orthogonalEdgeStyle;rounded=0;orthogonalLoop=1;jettySize=auto;html=1;entryX=0.5;entryY=0;entryDx=0;entryDy=0;" edge="1" parent="1" source="1zqEIglhUjaRobkNdiSv-21" target="1zqEIglhUjaRobkNdiSv-28">
          <mxGeometry relative="1" as="geometry" />
        </mxCell>
        <mxCell id="1zqEIglhUjaRobkNdiSv-21" value="&lt;font style=&quot;vertical-align: inherit&quot;&gt;&lt;font style=&quot;vertical-align: inherit&quot;&gt;温度差が&lt;br&gt;5未満であるか？&lt;br&gt;&lt;/font&gt;&lt;/font&gt;" style="strokeWidth=2;html=1;shape=mxgraph.flowchart.decision;whiteSpace=wrap;" vertex="1" parent="1">
          <mxGeometry x="80" y="680" width="160" height="100" as="geometry" />
        </mxCell>
        <mxCell id="1zqEIglhUjaRobkNdiSv-27" style="edgeStyle=orthogonalEdgeStyle;rounded=0;orthogonalLoop=1;jettySize=auto;html=1;" edge="1" parent="1" source="1zqEIglhUjaRobkNdiSv-24" target="1zqEIglhUjaRobkNdiSv-26">
          <mxGeometry relative="1" as="geometry" />
        </mxCell>
        <mxCell id="1zqEIglhUjaRobkNdiSv-32" style="edgeStyle=orthogonalEdgeStyle;rounded=0;orthogonalLoop=1;jettySize=auto;html=1;entryX=0.5;entryY=0;entryDx=0;entryDy=0;" edge="1" parent="1" source="1zqEIglhUjaRobkNdiSv-24" target="1zqEIglhUjaRobkNdiSv-31">
          <mxGeometry relative="1" as="geometry" />
        </mxCell>
        <mxCell id="1zqEIglhUjaRobkNdiSv-24" value="&lt;font style=&quot;vertical-align: inherit&quot;&gt;&lt;font style=&quot;vertical-align: inherit&quot;&gt;&lt;font style=&quot;vertical-align: inherit&quot;&gt;&lt;font style=&quot;vertical-align: inherit&quot;&gt;温度差が&lt;/font&gt;&lt;/font&gt;&lt;br&gt;&lt;font style=&quot;vertical-align: inherit&quot;&gt;&lt;font style=&quot;vertical-align: inherit&quot;&gt;10未満であるか？&lt;/font&gt;&lt;/font&gt;&lt;br&gt;&lt;/font&gt;&lt;/font&gt;" style="strokeWidth=2;html=1;shape=mxgraph.flowchart.decision;whiteSpace=wrap;" vertex="1" parent="1">
          <mxGeometry x="300" y="680" width="160" height="100" as="geometry" />
        </mxCell>
        <mxCell id="1zqEIglhUjaRobkNdiSv-33" style="edgeStyle=orthogonalEdgeStyle;rounded=0;orthogonalLoop=1;jettySize=auto;html=1;entryX=0.5;entryY=0;entryDx=0;entryDy=0;" edge="1" parent="1" source="1zqEIglhUjaRobkNdiSv-26" target="1zqEIglhUjaRobkNdiSv-30">
          <mxGeometry relative="1" as="geometry" />
        </mxCell>
        <mxCell id="1zqEIglhUjaRobkNdiSv-26" value="&lt;font style=&quot;vertical-align: inherit&quot;&gt;&lt;font style=&quot;vertical-align: inherit&quot;&gt;&lt;font style=&quot;vertical-align: inherit&quot;&gt;&lt;font style=&quot;vertical-align: inherit&quot;&gt;&lt;font style=&quot;vertical-align: inherit&quot;&gt;&lt;font style=&quot;vertical-align: inherit&quot;&gt;温度差が&lt;br&gt;&lt;/font&gt;&lt;/font&gt;&lt;/font&gt;&lt;/font&gt;&lt;font style=&quot;vertical-align: inherit&quot;&gt;&lt;font style=&quot;vertical-align: inherit&quot;&gt;&lt;font style=&quot;vertical-align: inherit&quot;&gt;&lt;font style=&quot;vertical-align: inherit&quot;&gt;10以上&lt;/font&gt;&lt;/font&gt;&lt;/font&gt;&lt;/font&gt;&lt;font style=&quot;vertical-align: inherit&quot;&gt;&lt;font style=&quot;vertical-align: inherit&quot;&gt;&lt;font style=&quot;vertical-align: inherit&quot;&gt;&lt;font style=&quot;vertical-align: inherit&quot;&gt;であるか？&lt;/font&gt;&lt;/font&gt;&lt;/font&gt;&lt;/font&gt;&lt;br&gt;&lt;/font&gt;&lt;/font&gt;" style="strokeWidth=2;html=1;shape=mxgraph.flowchart.decision;whiteSpace=wrap;" vertex="1" parent="1">
          <mxGeometry x="520" y="680" width="160" height="100" as="geometry" />
        </mxCell>
        <mxCell id="1zqEIglhUjaRobkNdiSv-28" value="&lt;font style=&quot;vertical-align: inherit&quot;&gt;&lt;font style=&quot;vertical-align: inherit&quot;&gt;時間用の変数に15を代入&lt;/font&gt;&lt;/font&gt;" style="rounded=1;whiteSpace=wrap;html=1;absoluteArcSize=1;arcSize=14;strokeWidth=2;" vertex="1" parent="1">
          <mxGeometry x="80" y="820" width="160" height="70" as="geometry" />
        </mxCell>
        <mxCell id="1zqEIglhUjaRobkNdiSv-30" value="&lt;font style=&quot;vertical-align: inherit&quot;&gt;&lt;font style=&quot;vertical-align: inherit&quot;&gt;&lt;font style=&quot;vertical-align: inherit&quot;&gt;&lt;font style=&quot;vertical-align: inherit&quot;&gt;時間用の変数に60を代入&lt;/font&gt;&lt;/font&gt;&lt;/font&gt;&lt;/font&gt;" style="rounded=1;whiteSpace=wrap;html=1;absoluteArcSize=1;arcSize=14;strokeWidth=2;" vertex="1" parent="1">
          <mxGeometry x="520" y="820" width="160" height="70" as="geometry" />
        </mxCell>
        <mxCell id="1zqEIglhUjaRobkNdiSv-31" value="&lt;font style=&quot;vertical-align: inherit&quot;&gt;&lt;font style=&quot;vertical-align: inherit&quot;&gt;&lt;font style=&quot;vertical-align: inherit&quot;&gt;&lt;font style=&quot;vertical-align: inherit&quot;&gt;時間用の変数に30を代入&lt;/font&gt;&lt;/font&gt;&lt;/font&gt;&lt;/font&gt;" style="rounded=1;whiteSpace=wrap;html=1;absoluteArcSize=1;arcSize=14;strokeWidth=2;" vertex="1" parent="1">
          <mxGeometry x="300" y="820" width="160" height="70" as="geometry" />
        </mxCell>
        <mxCell id="1zqEIglhUjaRobkNdiSv-34" value="&lt;font style=&quot;vertical-align: inherit&quot;&gt;&lt;font style=&quot;vertical-align: inherit&quot;&gt;時間用の変数を出力&lt;/font&gt;&lt;/font&gt;" style="rounded=1;whiteSpace=wrap;html=1;absoluteArcSize=1;arcSize=14;strokeWidth=2;" vertex="1" parent="1">
          <mxGeometry x="80" y="960" width="160" height="70" as="geometry" />
        </mxCell>
        <mxCell id="1zqEIglhUjaRobkNdiSv-35" value="" style="endArrow=none;html=1;entryX=0.5;entryY=1;entryDx=0;entryDy=0;exitX=0.5;exitY=0;exitDx=0;exitDy=0;" edge="1" parent="1" source="1zqEIglhUjaRobkNdiSv-34" target="1zqEIglhUjaRobkNdiSv-28">
          <mxGeometry width="50" height="50" relative="1" as="geometry">
            <mxPoint x="110" y="960" as="sourcePoint" />
            <mxPoint x="160" y="910" as="targetPoint" />
          </mxGeometry>
        </mxCell>
        <mxCell id="1zqEIglhUjaRobkNdiSv-36" value="" style="endArrow=none;html=1;entryX=0.5;entryY=1;entryDx=0;entryDy=0;" edge="1" parent="1" target="1zqEIglhUjaRobkNdiSv-30">
          <mxGeometry width="50" height="50" relative="1" as="geometry">
            <mxPoint x="160" y="940" as="sourcePoint" />
            <mxPoint x="470" y="900" as="targetPoint" />
            <Array as="points">
              <mxPoint x="600" y="940" />
            </Array>
          </mxGeometry>
        </mxCell>
        <mxCell id="1zqEIglhUjaRobkNdiSv-37" value="" style="endArrow=none;html=1;entryX=0.5;entryY=1;entryDx=0;entryDy=0;" edge="1" parent="1" target="1zqEIglhUjaRobkNdiSv-31">
          <mxGeometry width="50" height="50" relative="1" as="geometry">
            <mxPoint x="160" y="940" as="sourcePoint" />
            <mxPoint x="370" y="910" as="targetPoint" />
            <Array as="points">
              <mxPoint x="380" y="940" />
            </Array>
          </mxGeometry>
        </mxCell>
        <mxCell id="1zqEIglhUjaRobkNdiSv-38" value="&lt;font style=&quot;vertical-align: inherit&quot;&gt;&lt;font style=&quot;vertical-align: inherit&quot;&gt;終了&lt;/font&gt;&lt;/font&gt;" style="strokeWidth=2;html=1;shape=mxgraph.flowchart.terminator;whiteSpace=wrap;" vertex="1" parent="1">
          <mxGeometry x="80" y="1080" width="160" height="70" as="geometry" />
        </mxCell>
        <mxCell id="1zqEIglhUjaRobkNdiSv-42" value="" style="endArrow=none;html=1;entryX=0.5;entryY=1;entryDx=0;entryDy=0;exitX=0.5;exitY=0;exitDx=0;exitDy=0;exitPerimeter=0;" edge="1" parent="1" source="1zqEIglhUjaRobkNdiSv-38" target="1zqEIglhUjaRobkNdiSv-34">
          <mxGeometry width="50" height="50" relative="1" as="geometry">
            <mxPoint x="200" y="1120" as="sourcePoint" />
            <mxPoint x="250" y="1070" as="targetPoint" />
          </mxGeometry>
        </mxCell>
      </root>
    </mxGraphModel>
  </diagram>
</mxfile>
